<svg xmlns="http://www.w3.org/2000/svg" fill="none" viewBox="0 0 24 24" id="Transmission-Virus-Crowd--Streamline-Covid" height="24" width="24">
  <desc>
    Transmission Virus Crowd Streamline Icon: https://streamlinehq.com
  </desc>
  <path stroke="#000000" stroke-linecap="round" stroke-linejoin="round" d="M12.107 18.251a2.063 2.063 0 1 0 0 -4.126 2.063 2.063 0 0 0 0 4.126Z" stroke-width="1.5"></path>
  <path stroke="#000000" stroke-linecap="round" stroke-linejoin="round" d="M15.763 23.125a3.656 3.656 0 0 0 -7.312 0" stroke-width="1.5"></path>
  <path stroke="#000000" stroke-linecap="round" stroke-linejoin="round" d="M19.353 15.644a2.017 2.017 0 1 0 0 -4.034 2.017 2.017 0 0 0 0 4.034Z" stroke-width="1.5"></path>
  <path stroke="#000000" stroke-linecap="round" stroke-linejoin="round" d="M22.929 20.411A3.575 3.575 0 0 0 17 17.719" stroke-width="1.5"></path>
  <path stroke="#000000" stroke-linecap="round" stroke-linejoin="round" d="M4.647 15.644a2.017 2.017 0 1 0 0 -4.034 2.017 2.017 0 0 0 0 4.034Z" stroke-width="1.5"></path>
  <path stroke="#000000" stroke-linecap="round" stroke-linejoin="round" d="M1.071 20.411A3.575 3.575 0 0 1 7 17.719" stroke-width="1.5"></path>
  <path stroke="#000000" stroke-linecap="round" stroke-linejoin="round" d="M12 9.125a3 3 0 1 0 0 -6 3 3 0 0 0 0 6Z" stroke-width="1.5"></path>
  <path stroke="#000000" stroke-linecap="round" stroke-linejoin="round" d="M11.5 0.875h1" stroke-width="1.5"></path>
  <path stroke="#000000" stroke-linecap="round" stroke-linejoin="round" d="M12 0.875v2.25" stroke-width="1.5"></path>
  <path stroke="#000000" stroke-linecap="round" stroke-linejoin="round" d="m15.359 2.059 0.707 0.707" stroke-width="1.5"></path>
  <path stroke="#000000" stroke-linecap="round" stroke-linejoin="round" d="m15.712 2.413 -1.591 1.591" stroke-width="1.5"></path>
  <path stroke="#000000" stroke-linecap="round" stroke-linejoin="round" d="M17.25 5.625v1" stroke-width="1.5"></path>
  <path stroke="#000000" stroke-linecap="round" stroke-linejoin="round" d="M17.25 6.125H15" stroke-width="1.5"></path>
  <path stroke="#000000" stroke-linecap="round" stroke-linejoin="round" d="m16.066 9.484 -0.707 0.707" stroke-width="1.5"></path>
  <path stroke="#000000" stroke-linecap="round" stroke-linejoin="round" d="m15.712 9.837 -1.591 -1.591" stroke-width="1.5"></path>
  <path stroke="#000000" stroke-linecap="round" stroke-linejoin="round" d="M12.5 11.375h-1" stroke-width="1.5"></path>
  <path stroke="#000000" stroke-linecap="round" stroke-linejoin="round" d="M12 11.375v-2.25" stroke-width="1.5"></path>
  <path stroke="#000000" stroke-linecap="round" stroke-linejoin="round" d="m8.641 10.191 -0.707 -0.707" stroke-width="1.5"></path>
  <path stroke="#000000" stroke-linecap="round" stroke-linejoin="round" d="m8.288 9.837 1.591 -1.591" stroke-width="1.5"></path>
  <path stroke="#000000" stroke-linecap="round" stroke-linejoin="round" d="M6.75 6.625v-1" stroke-width="1.5"></path>
  <path stroke="#000000" stroke-linecap="round" stroke-linejoin="round" d="M6.75 6.125H9" stroke-width="1.5"></path>
  <path stroke="#000000" stroke-linecap="round" stroke-linejoin="round" d="m7.934 2.766 0.707 -0.707" stroke-width="1.5"></path>
  <path stroke="#000000" stroke-linecap="round" stroke-linejoin="round" d="m8.288 2.413 1.591 1.591" stroke-width="1.5"></path>
</svg>